<svg xmlns="http://www.w3.org/2000/svg" data-name="Layer 1" viewBox="-20 -20 140 140" x="0px" y="0px"><defs><style>.cls-1{opacity:0.41;}.cls-2{fill:none;}</style></defs><title>shiba</title><path class="cls-1" d="M31.38,32.19h0Z"/><path class="cls-1" d="M32.72,32.74l-.07.1A.23.23,0,0,0,32.72,32.74Z"/><path class="cls-1" d="M11.67,57.3h0Z"/><path class="cls-1" d="M11.67,57.3l0-.05Z"/><path d="M77.09,16.9c.18-.54.09-1.35.27-1.8a2.87,2.87,0,0,0,.27-1.26c0-.54-.27-.81-.72-.54a3,3,0,0,0-.83,1.05h0a13.23,13.23,0,0,1-.16,2.19A11.49,11.49,0,0,1,77.09,16.9Z"/><path d="M15.8,82.06A3.57,3.57,0,0,1,17,82.4a.48.48,0,0,0,.41-.24c.18-.45-.72-1.26-1.17-1.62a11.54,11.54,0,0,0-1.24-.8,8.86,8.86,0,0,0,.16,1.79A.74.74,0,0,0,15.8,82.06Z"/><path d="M9.95,79.72c0-.72,0-2.7.09-3.42s.45-3.69.45-4.41,1.08-2,1.62-2.7c0,0,.18-.18.09-.36s.72-.63.72-1.08v-.27a6.25,6.25,0,0,0,1.08-3c0-.55-.36-.45-.45-.27h0a9.67,9.67,0,0,1-1.53,3,5.57,5.57,0,0,0-1.53,2.7c-.27,1.08-.63,3.15-.81,3.69s-.27.63-.54,1.35A5.22,5.22,0,0,0,9,77.56,6.92,6.92,0,0,1,9,80.26a1.43,1.43,0,0,0,0,1.35,1.27,1.27,0,0,0,.81.54C9.68,81.79,9.95,80.44,9.95,79.72Z"/><path d="M67,78.55c.18.81.54,2.79,1.08,3s1.71-.09,2.7,1l.53.61h0s.73.11,1-.16-.45-.9-.9-1.53a3.61,3.61,0,0,0-1.17-1C70,80,68.63,80,68.09,80s-.54-.72-.81-1.44a11.22,11.22,0,0,1-.21-2.73h0A12.12,12.12,0,0,0,67,78.55Z"/><path class="cls-2" d="M31.38,32.19h0Z"/><path d="M91.4,23.83c.09-1-.63-1-.63-1-.72-.45-1.53-.36-2.25-.72a13,13,0,0,0-3.33-.45A4.72,4.72,0,0,1,83,21c-.54-.36-.54-1-.81-1.26s-1.26-.81-2-1.44a4.56,4.56,0,0,0-2.52-.63,3.53,3.53,0,0,1-1.17-.45,4.88,4.88,0,0,0-1.35-.18,7.38,7.38,0,0,0,.34-2.37l0-.24c.09-.9-.27-1.35-.81-.81s-1.44,1.8-2.34,2.88a9.08,9.08,0,0,0-1.26,1.89s-1.17.63-2.34,1.17a7.45,7.45,0,0,0-2.16,1.71c-1.53,2-2.79,4.68-3.24,5a2.15,2.15,0,0,1-1.17.36,1.3,1.3,0,0,1,.63.54,1.65,1.65,0,0,1-1,0l.72.45-.54.18s.27.54-.09.72a1.55,1.55,0,0,1-.63.18l.45.18a2.74,2.74,0,0,1-1.08.81l.36.27h-.63a1.12,1.12,0,0,1-.18,1,1.89,1.89,0,0,1-1.26.45v.36l-.27-.09.18.45a2.08,2.08,0,0,1-.63-.54,1.55,1.55,0,0,0,.18.81,2.74,2.74,0,0,0-1.26-.54l.09.36-.45-.18s.63.81.18.54a5.77,5.77,0,0,0-1.44-.45l.54.54a2.77,2.77,0,0,0-1-.18,4.62,4.62,0,0,1,1.26.72A6.43,6.43,0,0,0,55,32.83,3.59,3.59,0,0,1,54,32.47l.63.63-1-.54.27.36a4.42,4.42,0,0,0-.9-.36s.36.45-1.53,1.26-4.5.81-7,.54a65.72,65.72,0,0,0-8.28-.27,13.84,13.84,0,0,1-4.32-.63,2.13,2.13,0,0,0,.83-.62,2,2,0,0,1-.83.26,2.84,2.84,0,0,1,1-.63,1.72,1.72,0,0,0-.9-.27,2.33,2.33,0,0,1,.9-.45,2.29,2.29,0,0,0-1.43.44,2.42,2.42,0,0,0,1-1.34,1.54,1.54,0,0,1-1.08.45,1.73,1.73,0,0,1,.72-.45,1.34,1.34,0,0,0-.63,0l.9-.54-1.17.09.63-.63-.9.45a1.38,1.38,0,0,0,.54-.9,1.11,1.11,0,0,1-.81.36,1.74,1.74,0,0,0,.54-1.35,1.26,1.26,0,0,1-.54.63l.18-.45-.54.18a3.17,3.17,0,0,0,.36-.9,4,4,0,0,1-1,1.08,2.77,2.77,0,0,0,.45-.63l-.54.09a1.73,1.73,0,0,0,.27-.81,1.92,1.92,0,0,1-.81.63,2.78,2.78,0,0,0,.54-1.08l-.63.27V26.8a5.59,5.59,0,0,1-.72.9,2.56,2.56,0,0,0,.45-1.62l-.45.72a2,2,0,0,1,0-.81l-.9.81.27-.72-.63,1a4.39,4.39,0,0,0,.36-1l-.45.45a4.09,4.09,0,0,0,.27-1l-.45.54v-.72a2.23,2.23,0,0,1-.63.81A4.49,4.49,0,0,0,26,25a3.26,3.26,0,0,1-.45,1.08l-.09-.72L25,25.9v-.36l-.36.54v-.72l-.18.36a7,7,0,0,0-.09-.81,1.52,1.52,0,0,1-.36.72v-.36l-.36.81-.09-.9-.36.45-.09-.54a1.82,1.82,0,0,1-.45.81,1.37,1.37,0,0,0-.09-.9A2.31,2.31,0,0,1,22,26.08a2.33,2.33,0,0,0-.09-1.35,3.71,3.71,0,0,1-.18.81,3.78,3.78,0,0,0-.18-.45,2.09,2.09,0,0,1-.27,1.53,6.87,6.87,0,0,0,0-1.44l-.72.63a1.68,1.68,0,0,0-.36-.81c.09.81-.18,1.08-.18,1.08l-.18-.63-.09.9L19.31,25l-.36,1.53-.18-.81-.09.45L18.32,26l-.09.45L17.69,26l-.09.45-.27-.18.27,1-.27-.45v.45L17,26.8l.09.54-.54-.81-.27.45-.36-.09.09.63-.72-.36v.63l-.54-.36.36,1.17-.72-.72.18.63L14,28.33l.45,1a1.61,1.61,0,0,0-.63-.45A3.09,3.09,0,0,1,14.54,30a8.84,8.84,0,0,0-1-1l.27,1a2.87,2.87,0,0,1-.81-.81,2.84,2.84,0,0,0,.45,1.44,2.51,2.51,0,0,0-.81-.45c.45.18.81,1,.81,1a2,2,0,0,0-.81-.54,3.87,3.87,0,0,1,.63.63l-.9-.18,1.08,1.35c-.45-.27-1.17-.81-1.17-.81a5.34,5.34,0,0,0,.9,1h-1A7.89,7.89,0,0,1,14,33.82a5.37,5.37,0,0,0-1.71-.72l1.08,1.44-.9-.18.54.45-.45-.09,1.08,1.17L13,35.71l.9.81-1.62-.45,1.62,1.08H12.74l1.08.27-.9.18,1.71.9h-.9l1,.54L13.64,39l1.35.36-.81.36,1.26.18-.54.27.81.54a2.9,2.9,0,0,0-1.26,2,1.3,1.3,0,0,1-.72,1l.27.27h-.72l.36.45c-.63,1.08-1.17,1.26-1.08,1.44a.43.43,0,0,1,0,.36l-.72.09,1,.09-1.35.36s.9,0,.72.27a3.4,3.4,0,0,1-.72.63.45.45,0,0,1,.45.27l-1,.18H12l-1,.63h1l-1.08.81.54-.09-.9.9.72-.09-.72.72,1.08-.09-1,.81,1.08-.18c-.45.18-1,1-1,1a2.77,2.77,0,0,1,1-.18,2.73,2.73,0,0,0-.63.45l.54-.09a1.53,1.53,0,0,1-.36.63,1.57,1.57,0,0,0,.81-.09,1.66,1.66,0,0,1-.81.63,2.75,2.75,0,0,0,.9,0,2,2,0,0,0-.72,1l.45-.27a2.25,2.25,0,0,0-.36.72l.9.18a2.16,2.16,0,0,0-.72.72l.9.09-.63.18.81.18a2.44,2.44,0,0,0-1.11.66A2.24,2.24,0,0,1,13,56.86l-.81.63h.9a2.74,2.74,0,0,1-1.26.63,3.47,3.47,0,0,0,1.44,0c-.09.18-1.08.54-1.08.54l1.17-.18-1.08.45h1.17a3.55,3.55,0,0,0-1.26.9l1.26.18-.72.63h1.08l-.81.9.9-.54-.72,1.08h.45l-.54.54.72-.27a3.76,3.76,0,0,0-.63,1l.9-.27-.72.63s.51-.28.83,0a1.18,1.18,0,0,1,.25,1,6.25,6.25,0,0,1-1.08,3l.36-.18c0,.45-1.17,1.35-1.08,1.53s-.09.36-.09.36c-.54.72-1.62,2-1.62,2.7s-.36,3.69-.45,4.41-.09,2.7-.09,3.42-.27,2.07-.18,2.43a1,1,0,0,0,.36.54,3,3,0,0,0,1.08,2.52c.63.81,3.24.27,3.24.27.36.63,2.79.18,3.42-.09s.45-.9.27-1.26-.9-.63-1.17-.9S17,83.32,16.7,83a.83.83,0,0,0-.23-.21,3.57,3.57,0,0,0-1.21-.33.74.74,0,0,1-.63-.54,8.86,8.86,0,0,1-.16-1.79,11.68,11.68,0,0,1,1-4.69c.36-.54.72-1.62,1.08-2.34A10.09,10.09,0,0,1,18.86,70c1.62-1.62,4.86-5,6.21-7.29s2.88-5.4,3.33-5.4.72.63.72.63l.36-.72.18.36.9-.27a14.22,14.22,0,0,1,4.41,0,88.35,88.35,0,0,1,14,3.51,33.53,33.53,0,0,0,10.8,1.89c.54.54.18,2.43.18,2.43.36.27.18,1.08.18,1.08h.45l-.45.36c.36.18.18,2.61.18,2.61l.45.18-.27.36.36.18-.36.45A9.37,9.37,0,0,1,61,72.79a3.92,3.92,0,0,1-.18,1.08s.09.36.27.9a15.17,15.17,0,0,1,0,3.51c-.09.9,1.08,1.44,1.35,1.53s1.44,4.68,2.52,5.49a5.59,5.59,0,0,0,3.69.72c1-.09,1.08-.27,1.08-.27s1.89.27,2.16-.18-.27-1.15-1-2L70.34,83c-1-1.08-2.16-.72-2.7-.9s-1-2.25-1.17-3.06a11.2,11.2,0,0,1,0-2.73,10.87,10.87,0,0,1,.21-1.41c.27-1.17.36-3,.63-4.59a11.75,11.75,0,0,1,1.08-3.42,25.26,25.26,0,0,0,1-4A17,17,0,0,1,71,59.11a3.22,3.22,0,0,0,1.62-.54,26.44,26.44,0,0,0,4.32-4.14c.72-1.08,1-1.26,1-2.52v-2l.54.27-.36-.63h.45l-.45-.36h.45a.85.85,0,0,1,.27-1s-.27-.72.54-2.25,1.62-7.56,1.89-9.09a15,15,0,0,0,.18-3.06l-.09-.45.36-.36-.45-.27.36-.09a1.32,1.32,0,0,1-.18-1.08l.18.27.27-.36h.27S82,30.94,84,30.4a20.29,20.29,0,0,0,4.59-1.62,2.28,2.28,0,0,0,1.17-1.62,1.9,1.9,0,0,0,.9-1.8C91,25.18,91.31,24.82,91.4,23.83Z"/><path d="M31.64,33.49v0h0Z"/></svg>